<?xml version="1.0" encoding="UTF-8" standalone="no"?>
<svg
   xmlns:dc="http://purl.org/dc/elements/1.1/"
   xmlns:cc="http://creativecommons.org/ns#"
   xmlns:rdf="http://www.w3.org/1999/02/22-rdf-syntax-ns#"
   xmlns:svg="http://www.w3.org/2000/svg"
   xmlns="http://www.w3.org/2000/svg"
   xmlns:xlink="http://www.w3.org/1999/xlink"
   version="1.1"
   id="svg9605"
   viewBox="0 0 101.53592 164.77185"
   height="164.77185mm"
   width="101.53592mm">
  <defs
     id="defs9607" />
  <metadata
     id="metadata9610">
    <rdf:RDF>
      <cc:Work
         rdf:about="">
        <dc:format>image/svg+xml</dc:format>
        <dc:type
           rdf:resource="http://purl.org/dc/dcmitype/StillImage" />
        <dc:title></dc:title>
      </cc:Work>
    </rdf:RDF>
  </metadata>
  <g
     transform="translate(-118.93466,-142.18639)"
     id="layer1">
    <image
       width="508"
       height="250.11945"
       preserveAspectRatio="none"
       xlink:href="file:///Users/kamal/work/designr/automte/front-end-templates/ref-images/Screen-1-automte.jpg"
       id="image10164"
       x="-466.42261"
       y="94.077179" />
    <g
       id="layer1-6"
       transform="translate(-209.80253,-166.16103)">
      <g
         id="g4297"
         transform="translate(0,-61.988095)">
        <path
           id="path4287"
           d="m 41.718899,250.59028 0,31.56964 c 0,2.18425 -0.21417,3.73537 -0.642853,4.65398 -0.714475,1.55143 -2.299544,2.41087 -4.409551,2.32751 l -0.829482,-0.10085 -0.165365,8.14503 c 0.357497,0.0124 0.958631,0.0191 1.331778,0.0191 5.858692,0 9.910871,-2.27631 12.156363,-6.07324 1.326883,-2.24549 1.990061,-5.28728 1.990061,-9.12503 l 0,-31.41617 -9.430951,0 z"
           style="font-style:normal;font-variant:normal;font-weight:bold;font-stretch:normal;font-size:62.71047592px;line-height:125%;font-family:Helvetica;-inkscape-font-specification:'Helvetica, Bold';font-variant-ligatures:none;font-variant-caps:normal;font-variant-numeric:normal;text-align:start;letter-spacing:0px;word-spacing:0px;writing-mode:lr-tb;text-anchor:start;fill:#124b92;fill-opacity:1;stroke:none;stroke-width:0.26458332px;stroke-linecap:butt;stroke-linejoin:miter;stroke-opacity:1" />
        <path
           id="text3417"
           d="m 26.192199,264.66034 a 4.5435818,4.5435818 0 0 0 -4.543391,4.54339 4.5435818,4.5435818 0 0 0 4.543391,4.54391 4.5435818,4.5435818 0 0 0 4.543909,-4.54391 4.5435818,4.5435818 0 0 0 -4.543909,-4.54339 z"
           style="font-style:normal;font-variant:normal;font-weight:bold;font-stretch:normal;font-size:62.71047592px;line-height:125%;font-family:Helvetica;-inkscape-font-specification:'Helvetica, Bold';font-variant-ligatures:none;font-variant-caps:normal;font-variant-numeric:normal;text-align:start;letter-spacing:0px;word-spacing:0px;writing-mode:lr-tb;text-anchor:start;fill:#124b92;fill-opacity:1;stroke:none;stroke-width:0.26458332px;stroke-linecap:butt;stroke-linejoin:miter;stroke-opacity:1" />
        <path
           id="rect3423"
           d="m 85.790479,253.46412 -4.21148,13.05347 10.07277,30.74955 9.621631,0 z"
           style="opacity:1;fill:#124b92;fill-opacity:1;stroke:none;stroke-width:1.60000002;stroke-linecap:butt;stroke-linejoin:round;stroke-miterlimit:4;stroke-dasharray:none;stroke-dashoffset:0;stroke-opacity:1" />
        <path
           id="path4267"
           d="m 135.11428,250.76248 15.23421,46.50466 -8.55245,0 -15.23421,-46.50466 8.55245,0 z"
           style="opacity:1;fill:#124b92;fill-opacity:1;stroke:none;stroke-width:1.60000002;stroke-linecap:butt;stroke-linejoin:round;stroke-miterlimit:4;stroke-dasharray:none;stroke-dashoffset:0;stroke-opacity:1" />
        <path
           style="opacity:1;fill:#124b92;fill-opacity:1;stroke:none;stroke-width:1.60000002;stroke-linecap:butt;stroke-linejoin:round;stroke-miterlimit:4;stroke-dasharray:none;stroke-dashoffset:0;stroke-opacity:1"
           d="m 223.43752,250.76248 -15.23421,46.50466 8.55245,0 15.23421,-46.50466 z"
           id="path4166" />
        <path
           id="rect4273"
           transform="matrix(0.26458333,0,0,0.26458333,0,138.24999)"
           d="m 763.71484,496.22852 -30.36718,17.76953 0.0234,0.64453 c -5.6e-4,30.96298 -25.10146,56.06307 -56.06445,56.0625 -1.01401,-2e-5 -5.15208,-0.0288 -6.15283,-0.082 l 0,32.35156 c 1.0035,0.0337 5.14112,0.0566 6.15283,0.0566 48.81577,1.5e-4 88.38886,-39.5729 88.38867,-88.38867 -0.0151,-6.19045 -0.67732,-12.36232 -1.98047,-18.41406 z"
           style="opacity:1;fill:#124b92;fill-opacity:1;stroke:none;stroke-width:6.04724407;stroke-linecap:butt;stroke-linejoin:round;stroke-miterlimit:4;stroke-dasharray:none;stroke-dashoffset:0;stroke-opacity:1" />
        <rect
           y="273.67059"
           x="16.414146"
           height="15.501633"
           width="235.73174"
           id="rect4259"
           style="opacity:1;fill:#f15024;fill-opacity:1;stroke:none;stroke-width:1.60000002;stroke-linecap:butt;stroke-linejoin:round;stroke-miterlimit:4;stroke-dasharray:none;stroke-dashoffset:0;stroke-opacity:1" />
        <path
           style="opacity:1;fill:#124b92;fill-opacity:1;stroke:none;stroke-width:1.60000002;stroke-linecap:butt;stroke-linejoin:round;stroke-miterlimit:4;stroke-dasharray:none;stroke-dashoffset:0;stroke-opacity:1"
           d="m 229.64645,266.51759 10.07276,30.74955 9.62164,0 -0.0217,-0.0667 2.84944,0 0,-8.21862 -5.54178,0 -12.5799,-36.08468 z"
           id="path4252" />
        <path
           id="path4271"
           transform="matrix(0.26458333,0,0,0.26458333,0,138.24999)"
           d="m 677.30664,426.25391 c -48.81505,9e-4 -88.38687,39.57361 -88.38672,88.38867 -1.5e-4,47.8033 37.94985,86.7376 85.36524,88.33203 l 0,-32.35156 c -29.55689,-1.57071 -53.04051,-26.03225 -53.04102,-55.98047 -5.3e-4,-30.96303 25.09948,-56.06393 56.0625,-56.06446 2.22353,0.0151 4.44428,0.16102 6.65039,0.43946 10.2946,-5.70274 20.17523,-8.09901 31.73242,-23.90235 -13.18197,-7.42915 -23.25158,-8.82447 -38.38281,-8.86132 z m 56.06445,88.38867 c -5e-5,2.90278 -0.22106,5.75324 -0.64648,8.53711 0.42542,-2.78387 0.64643,-5.63433 0.64648,-8.53711 z m -0.64648,8.53711 c -0.28361,1.85591 -0.65822,3.68328 -1.11914,5.47461 0.46092,-1.79133 0.83553,-3.6187 1.11914,-5.47461 z m -12.15625,27.125 c -1.14257,1.38442 -2.35093,2.7123 -3.61914,3.98047 1.26821,-1.26817 2.47657,-2.59605 3.61914,-3.98047 z m -46.24609,52.66992 c 0.99124,0.0329 1.98512,0.0566 2.98437,0.0566 -0.99929,-2e-5 -1.99313,-0.0236 -2.98437,-0.0566 z"
           style="opacity:1;fill:#124b92;fill-opacity:1;stroke:none;stroke-width:6.04724407;stroke-linecap:butt;stroke-linejoin:round;stroke-miterlimit:4;stroke-dasharray:none;stroke-dashoffset:0;stroke-opacity:1" />
        <path
           id="path3436"
           d="m 197.29235,259.69217 -18.26917,10.69082 3.74189,6.99647 18.26865,-10.69082 -3.74137,-6.99647 z"
           style="opacity:1;fill:#124b92;fill-opacity:1;stroke:none;stroke-width:1.60000002;stroke-linecap:butt;stroke-linejoin:round;stroke-miterlimit:4;stroke-dasharray:none;stroke-dashoffset:0;stroke-opacity:1" />
        <path
           id="path3434"
           d="m 124.69388,253.8421 4.21148,12.67549 -10.07277,30.74955 -9.62164,0 z"
           style="opacity:1;fill:#124b92;fill-opacity:1;stroke:none;stroke-width:1.60000002;stroke-linecap:butt;stroke-linejoin:round;stroke-miterlimit:4;stroke-dasharray:none;stroke-dashoffset:0;stroke-opacity:1" />
        <path
           id="path4263"
           d="m 75.370075,250.76248 -15.234211,46.50466 8.55245,0 15.234211,-46.50466 -8.55245,0 z"
           style="opacity:1;fill:#124b92;fill-opacity:1;stroke:none;stroke-width:1.60000002;stroke-linecap:butt;stroke-linejoin:round;stroke-miterlimit:4;stroke-dasharray:none;stroke-dashoffset:0;stroke-opacity:1" />
        <path
           id="rect4289"
           d="m 22.213631,278.60768 0,1.04128 c 0,5.30754 1.000321,9.50233 3.00085,12.58477 1.873113,2.86701 5.437924,4.76926 10.693403,4.95186 l 0,-8.07415 c -1.820598,-0.14614 -3.037938,-0.8401 -3.650422,-2.08308 -0.673647,-1.42895 -1.05161,-3.88868 -1.133263,-7.3794 l 0,-1.04128 z"
           style="opacity:1;fill:#124b92;fill-opacity:1;stroke:none;stroke-width:1.60000002;stroke-linecap:butt;stroke-linejoin:round;stroke-miterlimit:4;stroke-dasharray:none;stroke-dashoffset:0;stroke-opacity:1" />
      </g>
    </g>
    <g
       id="g10280">
      <path
         style="opacity:1;fill:#2f3130;fill-opacity:1;stroke:none;stroke-width:0.26458332;stroke-linecap:butt;stroke-linejoin:miter;stroke-miterlimit:4;stroke-dasharray:none;stroke-dashoffset:0;stroke-opacity:1"
         d="m 646.59573,142.18639 0,113.86746 50.76796,-30.4741 -50.76796,-83.39336 z m -50.52714,82.99803 -0.24082,0.39533 0.24082,0.14469 0,-0.54002 z"
         id="rect10186" />
      <path
         style="opacity:1;fill:#141414;fill-opacity:1;stroke:none;stroke-width:0.26458332;stroke-linecap:butt;stroke-linejoin:miter;stroke-miterlimit:4;stroke-dasharray:none;stroke-dashoffset:0;stroke-opacity:1"
         d="m 646.59573,203.39144 0,52.66241 50.76796,-30.4741 -50.76796,-22.18831 z m -50.52714,22.08288 -0.24082,0.10543 0.24082,0.14469 0,-0.25012 z"
         id="path10193" />
      <path
         style="opacity:1;fill:#2f3130;fill-opacity:1;stroke:none;stroke-width:0.26458332;stroke-linecap:butt;stroke-linejoin:miter;stroke-miterlimit:4;stroke-dasharray:none;stroke-dashoffset:0;stroke-opacity:1"
         d="m 595.82777,235.65975 0.24082,0.33796 0,-0.19688 -0.24082,-0.14108 z m 101.53592,0 -50.76796,29.74805 0,41.55044 50.76796,-71.29849 z"
         id="path10195" />
      <path
         id="path10217"
         d="m 646.59573,142.18639 0,113.86746 -50.76796,-30.4741 50.76796,-83.39336 z m 50.52714,82.99803 0.24082,0.39533 -0.24082,0.14469 0,-0.54002 z"
         style="opacity:1;fill:#828385;fill-opacity:1;stroke:none;stroke-width:0.26458332;stroke-linecap:butt;stroke-linejoin:miter;stroke-miterlimit:4;stroke-dasharray:none;stroke-dashoffset:0;stroke-opacity:1" />
      <path
         id="path10219"
         d="m 646.59573,203.39144 0,52.66241 -50.76796,-30.4741 50.76796,-22.18831 z m 50.52714,22.08288 0.24082,0.10543 -0.24082,0.14469 0,-0.25012 z"
         style="opacity:1;fill:#353535;fill-opacity:1;stroke:none;stroke-width:0.26458332;stroke-linecap:butt;stroke-linejoin:miter;stroke-miterlimit:4;stroke-dasharray:none;stroke-dashoffset:0;stroke-opacity:1" />
      <path
         id="path10221"
         d="m 697.36369,235.65975 -0.24082,0.33796 0,-0.19688 0.24082,-0.14108 z m -101.53592,0 50.76796,29.74805 0,41.55044 -50.76796,-71.29849 z"
         style="opacity:1;fill:#828385;fill-opacity:1;stroke:none;stroke-width:0.26458332;stroke-linecap:butt;stroke-linejoin:miter;stroke-miterlimit:4;stroke-dasharray:none;stroke-dashoffset:0;stroke-opacity:1" />
      <path
         transform="matrix(0.85733534,0.51475831,0,1,0,0)"
         style="opacity:1;fill:#f15024;fill-opacity:1;stroke:none;stroke-width:0.28575054;stroke-linecap:butt;stroke-linejoin:miter;stroke-miterlimit:4;stroke-dasharray:none;stroke-dashoffset:0;stroke-opacity:1"
         d="m 700.19499,-141.85051 53.98192,-0.12619 0,9.81171 -58.91971,0 z"
         id="rect10273" />
      <path
         id="path10278"
         d="m 692.86312,218.58068 -46.28061,27.66145 0,9.81171 50.51395,-30.32941 z"
         style="opacity:1;fill:#124b92;fill-opacity:1;stroke:none;stroke-width:0.26458329;stroke-linecap:butt;stroke-linejoin:miter;stroke-miterlimit:4;stroke-dasharray:none;stroke-dashoffset:0;stroke-opacity:1" />
    </g>
    <g
       transform="translate(-593.42262)"
       id="g4188">
      <path
         id="path10292"
         d="m 763.12524,142.18639 0,113.86746 50.76796,-30.4741 -50.76796,-83.39336 z m -50.52714,82.99803 -0.24082,0.39533 0.24082,0.14469 0,-0.54002 z"
         style="opacity:1;fill:#2f3130;fill-opacity:1;stroke:none;stroke-width:0.26458332;stroke-linecap:butt;stroke-linejoin:miter;stroke-miterlimit:4;stroke-dasharray:none;stroke-dashoffset:0;stroke-opacity:1" />
      <path
         id="path10294"
         d="m 763.12524,203.39144 0,52.66241 50.76796,-30.4741 -50.76796,-22.18831 z m -50.52714,22.08288 -0.24082,0.10543 0.24082,0.14469 0,-0.25012 z"
         style="opacity:1;fill:#141414;fill-opacity:1;stroke:none;stroke-width:0.26458332;stroke-linecap:butt;stroke-linejoin:miter;stroke-miterlimit:4;stroke-dasharray:none;stroke-dashoffset:0;stroke-opacity:1" />
      <path
         id="path10296"
         d="m 712.35728,235.65975 0.24082,0.33796 0,-0.19688 -0.24082,-0.14108 z m 101.53592,0 -50.76796,29.74805 0,41.55044 50.76796,-71.29849 z"
         style="opacity:1;fill:#2f3130;fill-opacity:1;stroke:none;stroke-width:0.26458332;stroke-linecap:butt;stroke-linejoin:miter;stroke-miterlimit:4;stroke-dasharray:none;stroke-dashoffset:0;stroke-opacity:1" />
      <path
         style="opacity:1;fill:#828385;fill-opacity:1;stroke:none;stroke-width:0.26458332;stroke-linecap:butt;stroke-linejoin:miter;stroke-miterlimit:4;stroke-dasharray:none;stroke-dashoffset:0;stroke-opacity:1"
         d="m 763.12524,142.18639 0,113.86746 -50.76796,-30.4741 50.76796,-83.39336 z m 50.52714,82.99803 0.24082,0.39533 -0.24082,0.14469 0,-0.54002 z"
         id="path10298" />
      <path
         style="opacity:1;fill:#353535;fill-opacity:1;stroke:none;stroke-width:0.26458332;stroke-linecap:butt;stroke-linejoin:miter;stroke-miterlimit:4;stroke-dasharray:none;stroke-dashoffset:0;stroke-opacity:1"
         d="m 763.12524,203.39144 0,52.66241 -50.76796,-30.4741 50.76796,-22.18831 z m 50.52714,22.08288 0.24082,0.10543 -0.24082,0.14469 0,-0.25012 z"
         id="path10300" />
      <path
         style="opacity:1;fill:#828385;fill-opacity:1;stroke:none;stroke-width:0.26458332;stroke-linecap:butt;stroke-linejoin:miter;stroke-miterlimit:4;stroke-dasharray:none;stroke-dashoffset:0;stroke-opacity:1"
         d="m 813.8932,235.65975 -0.24082,0.33796 0,-0.19688 0.24082,-0.14108 z m -101.53592,0 50.76796,29.74805 0,41.55044 -50.76796,-71.29849 z"
         id="path10302" />
      <path
         style="opacity:1;fill:#124b92;fill-opacity:1;stroke:none;stroke-width:0.26458332;stroke-linecap:butt;stroke-linejoin:miter;stroke-miterlimit:4;stroke-dasharray:none;stroke-dashoffset:0;stroke-opacity:1"
         d="m 712.35728,235.65975 0.24082,0.33796 0,-0.19688 z m 101.53592,0 -50.76796,29.74805 0,25.51427 z"
         id="path10334" />
      <rect
         style="opacity:1;fill:#1a0702;fill-opacity:1;stroke:none;stroke-width:0.2797628;stroke-linecap:butt;stroke-linejoin:miter;stroke-miterlimit:4;stroke-dasharray:none;stroke-dashoffset:0;stroke-opacity:1"
         id="rect10348"
         width="1.7928984"
         height="5.7462945"
         x="856.17334"
         y="648.63733"
         transform="matrix(0.89442718,-0.44721362,0,1,0,0)" />
      <path
         style="opacity:1;fill:#b7300c;fill-opacity:1;stroke:none;stroke-width:0.26458332;stroke-linecap:butt;stroke-linejoin:miter;stroke-miterlimit:4;stroke-dasharray:none;stroke-dashoffset:0;stroke-opacity:1"
         d="m 762.46573,268.55619 4.44797,-2.56281 0,3.79018 -4.44797,2.92639 z"
         id="rect10340" />
      <rect
         transform="matrix(0.89442718,-0.44721362,0,1,0,0)"
         y="655.25183"
         x="856.17334"
         height="5.7462945"
         width="1.7928984"
         id="rect10350"
         style="opacity:1;fill:#1a0702;fill-opacity:1;stroke:none;stroke-width:0.2797628;stroke-linecap:butt;stroke-linejoin:miter;stroke-miterlimit:4;stroke-dasharray:none;stroke-dashoffset:0;stroke-opacity:1" />
      <path
         style="opacity:1;fill:#b7300c;fill-opacity:1;stroke:none;stroke-width:0.26458332;stroke-linecap:butt;stroke-linejoin:miter;stroke-miterlimit:4;stroke-dasharray:none;stroke-dashoffset:0;stroke-opacity:1"
         d="m 762.46573,275.92673 4.44797,-3.20796 0,3.79018 -4.44797,3.57155 z"
         id="rect10342" />
      <rect
         style="opacity:1;fill:#1a0702;fill-opacity:1;stroke:none;stroke-width:0.2797628;stroke-linecap:butt;stroke-linejoin:miter;stroke-miterlimit:4;stroke-dasharray:none;stroke-dashoffset:0;stroke-opacity:1"
         id="rect10352"
         width="1.7928984"
         height="5.7462945"
         x="856.17334"
         y="662.39551"
         transform="matrix(0.89442718,-0.44721362,0,1,0,0)" />
      <path
         style="opacity:1;fill:#b7300c;fill-opacity:1;stroke:none;stroke-width:0.26458332;stroke-linecap:butt;stroke-linejoin:miter;stroke-miterlimit:4;stroke-dasharray:none;stroke-dashoffset:0;stroke-opacity:1"
         d="m 762.46573,283.48624 4.44797,-3.86966 0,3.79019 -4.44797,4.23324 z"
         id="rect10344" />
      <path
         id="path10336"
         d="m 813.8932,235.65975 -0.24082,0.33796 0,-0.19688 z m -101.53592,0 50.76796,29.74805 0,25.51427 z"
         style="opacity:1;fill:#f15024;fill-opacity:1;stroke:none;stroke-width:0.26458332;stroke-linecap:butt;stroke-linejoin:miter;stroke-miterlimit:4;stroke-dasharray:none;stroke-dashoffset:0;stroke-opacity:1" />
    </g>
  </g>
</svg>
