<?xml version="1.0" encoding="UTF-8"?>
<svg width="264px" height="80px" viewBox="0 0 264 80" version="1.1" xmlns="http://www.w3.org/2000/svg" xmlns:xlink="http://www.w3.org/1999/xlink">
    <!-- Generator: Sketch 41.2 (35397) - http://www.bohemiancoding.com/sketch -->
    <title>Group 2</title>
    <desc>Created with Sketch.</desc>
    <defs></defs>
    <g id="Page-1" stroke="none" stroke-width="1" fill="none" fill-rule="evenodd">
        <g id="Desktop-HD">
            <g id="Group-2">
                <g id="handshake">
                    <g id="Capa_1">
                        <g id="Layer_1_19_">
                            <g id="Group">
                                <path d="M70.7590561,12.9713073 C70.5115923,12.7422839 70.2039345,12.576651 69.8717533,12.4805429 L49.8628517,6.71815083 C41.8615204,4.41360296 36.6558619,8.43378141 35.2535667,9.72408283 C34.4353754,10.4745434 33.8089129,11.265901 33.4878787,11.955016 L24.5747212,31.1848014 C24.0641876,32.2849316 24.2380812,33.7510903 25.0384372,35.2131593 C26.1843509,37.3009529 28.2487791,38.8059637 30.7167294,39.3478494 C33.4789611,39.9551704 36.3437453,39.1310951 38.5865258,37.0760192 C39.1728591,36.5382232 39.6722456,35.9452162 39.966527,35.4421827 L42.962846,30.3443674 C43.4555443,29.4998436 44.171183,28.6246471 44.9247216,27.9334872 C47.4952245,25.5737284 48.716938,26.6534101 49.2363891,27.1114568 C53.7197207,31.080514 77.2243279,52.7314038 77.2243279,52.7314038 C78.0603545,53.4982232 77.886461,54.9521127 76.8408704,55.9091033 C75.7975093,56.8640491 74.2101736,57.0276372 73.3763765,56.2649075 L66.7728816,50.2101016 C65.9212493,49.4269234 64.5479363,49.4269234 63.696304,50.2101016 C62.8446716,50.9851004 62.8446716,52.2508636 63.696304,53.0299521 L70.2997989,59.0888477 C71.133596,59.8515774 70.9597025,61.305467 69.9163414,62.2604127 C68.8729803,63.2194482 67.2834152,63.3789466 66.4540768,62.6162169 L59.8483525,56.561411 C58.9967202,55.7802777 57.6189485,55.7802777 56.7717749,56.561411 C55.9201426,57.3364098 55.9201426,58.602173 56.7717749,59.3833064 L63.3752698,65.4401571 C64.2090669,66.2049316 64.0284852,67.6588212 62.9873535,68.6158118 C61.9462218,69.5707575 60.3611155,69.7343457 59.525089,68.9675263 L52.9215941,62.9127204 C52.0744205,62.1336319 50.6944194,62.1336319 49.8450164,62.9127204 C48.9978429,63.6918089 48.9978429,64.9575721 49.8450164,65.7325709 L56.4485113,71.7914665 C57.2845379,72.5582859 57.1061855,74.0121754 56.0650538,74.969166 C55.0172339,75.9261566 53.4321276,76.0876999 52.6005599,75.3229254 L44.5613288,67.9430556 C45.7094719,66.3603404 45.3973553,64.0639719 43.6940906,62.4955707 C41.7857207,60.7472224 38.8495955,60.5856792 37.1507896,62.1479459 C38.8495955,60.587724 38.6823902,57.898744 36.7695615,56.1463061 C34.8567328,54.3959131 31.9272958,54.2343698 30.2284899,55.7925468 C31.9272958,54.2343698 31.7556317,51.5474347 29.8405736,49.7970416 C27.9322037,48.0425588 25.0027668,47.8830604 23.299502,49.4412374 C25.0027668,47.8830604 24.8266438,45.1961253 22.9160445,43.4395977 C21.1280625,41.7996266 18.4639246,41.5767378 16.7316776,42.8261421 L3.7141872,30.8862531 C2.86478424,30.1051197 1.48478312,30.1051197 0.635380163,30.8862531 C-0.211793388,31.6632967 -0.211793388,32.9290599 0.635380163,33.7101933 L13.6194295,45.6173647 L9.76924868,49.1488236 C8.07044277,50.7049557 8.24210689,53.3918909 10.157165,55.1484185 C12.0655349,56.8988115 14.9949718,57.0603548 16.6960072,55.500133 C14.9949718,57.0603548 15.1688654,59.7452451 17.0816941,61.4997279 C18.990064,63.2480761 21.9217303,63.4137091 23.6227656,61.8534872 C21.9217303,63.4137091 22.0933944,66.0985993 24.0062231,67.8510373 C25.9190518,69.60552 28.8484888,69.7650184 30.5472947,68.2068415 C28.8484888,69.7629736 29.0201529,72.4478639 30.9329816,74.2043915 C32.8435809,75.9547845 35.7707885,76.1163278 37.4740532,74.556106 L41.5404862,70.8283413 L49.5239822,78.1489104 C52.0721911,80.4861759 56.3816292,80.3225878 59.1416315,77.7951511 C60.4859621,76.5621055 61.2038302,74.9875697 61.3041534,73.4293927 C63.0029593,73.3373744 64.7218299,72.6768873 66.0639311,71.4417968 C67.4104912,70.2087513 68.1328181,68.6342155 68.2353707,67.0760385 C69.9319472,66.9840201 71.6441295,66.3255779 72.9951484,65.0904875 C74.3394791,63.855397 75.0595766,62.2829061 75.1576704,60.7226842 C76.8587057,60.6327108 78.5753468,59.9742685 79.9219069,58.7350884 C82.6774503,56.2076517 82.846885,52.2488188 80.3053644,49.915643 L76.9389642,46.8258721 L90.7612695,34.1498364 C91.6106725,33.3727927 91.6106725,32.1070295 90.7612695,31.327941 L70.7590561,12.9713073 Z" id="Shape" fill="#0D0D0D"></path>
                                <path d="M103.688338,17.3265397 L86.0738163,1.17016639 C84.3750104,-0.390055462 81.6172375,-0.390055462 79.9162022,1.17016639 L73.7585882,6.81395708 C72.0597823,8.37213407 72.0597823,10.9016156 73.7585882,12.4597926 L91.3753392,28.6202556 C93.0763745,30.1784326 95.8341474,30.1784326 97.5329533,28.6202556 L103.688338,22.9744201 C105.384914,21.4141982 105.384914,18.8847167 103.688338,17.3265397 Z M94.4429992,25.5550229 C92.472206,25.5550229 90.8714939,24.0888642 90.8714939,22.2791705 C90.8714939,20.4694767 92.472206,19.0012732 94.4429992,19.0012732 C96.4160218,19.0012732 98.016734,20.4674319 98.016734,22.2791705 C98.0145046,24.0868194 96.4160218,25.5550229 94.4429992,25.5550229 Z" id="Shape" fill="#0E0D0D"></path>
                            </g>
                        </g>
                    </g>
                </g>
                <text id="AUTOMTE-Simplifying" font-family="Courier-Bold, Courier" font-size="35" font-weight="bold" fill="#171616">
                    <tspan x="118.539319" y="45">AUTOMTE</tspan>
                    <tspan x="120.039563" y="87" font-size="10">Simplifying transactions</tspan>
                </text>
            </g>
        </g>
    </g>
</svg>