<?xml version="1.0" encoding="UTF-8" standalone="no"?>
<svg
   xmlns:dc="http://purl.org/dc/elements/1.1/"
   xmlns:cc="http://creativecommons.org/ns#"
   xmlns:rdf="http://www.w3.org/1999/02/22-rdf-syntax-ns#"
   xmlns:svg="http://www.w3.org/2000/svg"
   xmlns="http://www.w3.org/2000/svg"
   version="1.1"
   id="svg9605"
   viewBox="0 0 101.53592 164.77185"
   height="164.77185mm"
   width="101.53592mm">
  <defs
     id="defs9607" />
  <metadata
     id="metadata9610">
    <rdf:RDF>
      <cc:Work
         rdf:about="">
        <dc:format>image/svg+xml</dc:format>
        <dc:type
           rdf:resource="http://purl.org/dc/dcmitype/StillImage" />
        <dc:title></dc:title>
      </cc:Work>
    </rdf:RDF>
  </metadata>
  <g
     transform="translate(-118.93466,-142.18639)"
     id="layer1">
    <g
       transform="translate(-593.42262)"
       id="g4188">
      <path
         id="path10292"
         d="m 763.12524,142.18639 0,113.86746 50.76796,-30.4741 -50.76796,-83.39336 z m -50.52714,82.99803 -0.24082,0.39533 0.24082,0.14469 0,-0.54002 z"
         style="opacity:1;fill:#2f3130;fill-opacity:1;stroke:none;stroke-width:0.26458332;stroke-linecap:butt;stroke-linejoin:miter;stroke-miterlimit:4;stroke-dasharray:none;stroke-dashoffset:0;stroke-opacity:1" />
      <path
         id="path10294"
         d="m 763.12524,203.39144 0,52.66241 50.76796,-30.4741 -50.76796,-22.18831 z m -50.52714,22.08288 -0.24082,0.10543 0.24082,0.14469 0,-0.25012 z"
         style="opacity:1;fill:#141414;fill-opacity:1;stroke:none;stroke-width:0.26458332;stroke-linecap:butt;stroke-linejoin:miter;stroke-miterlimit:4;stroke-dasharray:none;stroke-dashoffset:0;stroke-opacity:1" />
      <path
         id="path10296"
         d="m 712.35728,235.65975 0.24082,0.33796 0,-0.19688 -0.24082,-0.14108 z m 101.53592,0 -50.76796,29.74805 0,41.55044 50.76796,-71.29849 z"
         style="opacity:1;fill:#2f3130;fill-opacity:1;stroke:none;stroke-width:0.26458332;stroke-linecap:butt;stroke-linejoin:miter;stroke-miterlimit:4;stroke-dasharray:none;stroke-dashoffset:0;stroke-opacity:1" />
      <path
         style="opacity:1;fill:#828385;fill-opacity:1;stroke:none;stroke-width:0.26458332;stroke-linecap:butt;stroke-linejoin:miter;stroke-miterlimit:4;stroke-dasharray:none;stroke-dashoffset:0;stroke-opacity:1"
         d="m 763.12524,142.18639 0,113.86746 -50.76796,-30.4741 50.76796,-83.39336 z m 50.52714,82.99803 0.24082,0.39533 -0.24082,0.14469 0,-0.54002 z"
         id="path10298" />
      <path
         style="opacity:1;fill:#353535;fill-opacity:1;stroke:none;stroke-width:0.26458332;stroke-linecap:butt;stroke-linejoin:miter;stroke-miterlimit:4;stroke-dasharray:none;stroke-dashoffset:0;stroke-opacity:1"
         d="m 763.12524,203.39144 0,52.66241 -50.76796,-30.4741 50.76796,-22.18831 z m 50.52714,22.08288 0.24082,0.10543 -0.24082,0.14469 0,-0.25012 z"
         id="path10300" />
      <path
         style="opacity:1;fill:#828385;fill-opacity:1;stroke:none;stroke-width:0.26458332;stroke-linecap:butt;stroke-linejoin:miter;stroke-miterlimit:4;stroke-dasharray:none;stroke-dashoffset:0;stroke-opacity:1"
         d="m 813.8932,235.65975 -0.24082,0.33796 0,-0.19688 0.24082,-0.14108 z m -101.53592,0 50.76796,29.74805 0,41.55044 -50.76796,-71.29849 z"
         id="path10302" />
      <path
         style="opacity:1;fill:#124b92;fill-opacity:1;stroke:none;stroke-width:0.26458332;stroke-linecap:butt;stroke-linejoin:miter;stroke-miterlimit:4;stroke-dasharray:none;stroke-dashoffset:0;stroke-opacity:1"
         d="m 712.35728,235.65975 0.24082,0.33796 0,-0.19688 z m 101.53592,0 -50.76796,29.74805 0,25.51427 z"
         id="path10334" />
      <rect
         style="opacity:1;fill:#1a0702;fill-opacity:1;stroke:none;stroke-width:0.2797628;stroke-linecap:butt;stroke-linejoin:miter;stroke-miterlimit:4;stroke-dasharray:none;stroke-dashoffset:0;stroke-opacity:1"
         id="rect10348"
         width="1.7928984"
         height="5.7462945"
         x="856.17334"
         y="648.63733"
         transform="matrix(0.89442718,-0.44721362,0,1,0,0)" />
      <path
         style="opacity:1;fill:#b7300c;fill-opacity:1;stroke:none;stroke-width:0.26458332;stroke-linecap:butt;stroke-linejoin:miter;stroke-miterlimit:4;stroke-dasharray:none;stroke-dashoffset:0;stroke-opacity:1"
         d="m 762.46573,268.55619 4.44797,-2.56281 0,3.79018 -4.44797,2.92639 z"
         id="rect10340" />
      <rect
         transform="matrix(0.89442718,-0.44721362,0,1,0,0)"
         y="655.25183"
         x="856.17334"
         height="5.7462945"
         width="1.7928984"
         id="rect10350"
         style="opacity:1;fill:#1a0702;fill-opacity:1;stroke:none;stroke-width:0.2797628;stroke-linecap:butt;stroke-linejoin:miter;stroke-miterlimit:4;stroke-dasharray:none;stroke-dashoffset:0;stroke-opacity:1" />
      <path
         style="opacity:1;fill:#b7300c;fill-opacity:1;stroke:none;stroke-width:0.26458332;stroke-linecap:butt;stroke-linejoin:miter;stroke-miterlimit:4;stroke-dasharray:none;stroke-dashoffset:0;stroke-opacity:1"
         d="m 762.46573,275.92673 4.44797,-3.20796 0,3.79018 -4.44797,3.57155 z"
         id="rect10342" />
      <rect
         style="opacity:1;fill:#1a0702;fill-opacity:1;stroke:none;stroke-width:0.2797628;stroke-linecap:butt;stroke-linejoin:miter;stroke-miterlimit:4;stroke-dasharray:none;stroke-dashoffset:0;stroke-opacity:1"
         id="rect10352"
         width="1.7928984"
         height="5.7462945"
         x="856.17334"
         y="662.39551"
         transform="matrix(0.89442718,-0.44721362,0,1,0,0)" />
      <path
         style="opacity:1;fill:#b7300c;fill-opacity:1;stroke:none;stroke-width:0.26458332;stroke-linecap:butt;stroke-linejoin:miter;stroke-miterlimit:4;stroke-dasharray:none;stroke-dashoffset:0;stroke-opacity:1"
         d="m 762.46573,283.48624 4.44797,-3.86966 0,3.79019 -4.44797,4.23324 z"
         id="rect10344" />
      <path
         id="path10336"
         d="m 813.8932,235.65975 -0.24082,0.33796 0,-0.19688 z m -101.53592,0 50.76796,29.74805 0,25.51427 z"
         style="opacity:1;fill:#f15024;fill-opacity:1;stroke:none;stroke-width:0.26458332;stroke-linecap:butt;stroke-linejoin:miter;stroke-miterlimit:4;stroke-dasharray:none;stroke-dashoffset:0;stroke-opacity:1" />
    </g>
  </g>
</svg>
