<?xml version="1.0" encoding="UTF-8"?>
<svg width="244px" height="100px" viewBox="0 0 1024 396" version="1.1" xmlns="http://www.w3.org/2000/svg" xmlns:xlink="http://www.w3.org/1999/xlink">
    <!-- Generator: Sketch 42 (36781) - http://www.bohemiancoding.com/sketch -->
    <title>1024</title>
    <desc>Created with Sketch.</desc>
    <defs></defs>
    <g id="Page-1" stroke="none" stroke-width="1" fill="none" fill-rule="evenodd">
        <g id="1024" fill="#FFFFFF">
            <g id="Group" transform="translate(71.000000, 112.000000)">
                <path d="M107.673569,59.456961 C107.297005,59.1134259 106.828844,58.8649764 106.323366,58.7208144 L75.8759584,50.0772262 C63.7003877,46.6204044 55.7789729,52.6506721 53.64511,54.5861242 C52.4000739,55.7118151 51.4467902,56.8988515 50.9582747,57.9325241 L37.3951842,86.7772021 C36.6183088,88.4273975 36.8829214,90.6266355 38.1008177,92.8197389 C39.8445467,95.9514293 42.9859729,98.2089456 46.7414359,99.0217741 C50.9447048,99.9327555 55.3040273,98.6966427 58.7168509,95.6140288 C59.6090703,94.8073348 60.3689833,93.9178243 60.8167892,93.163274 L65.3762673,85.5165511 C66.1260029,84.2497654 67.2149854,82.9369706 68.3616399,81.9002308 C72.2731565,78.3605925 74.1322294,79.9801151 74.9226747,80.6671853 C81.7449295,86.620771 117.511729,119.097106 117.511729,119.097106 C118.783904,120.247335 118.519292,122.428169 116.928224,123.863655 C115.340549,125.296074 112.925111,125.541456 111.656327,124.397361 L101.607835,115.315152 C100.311912,114.140385 98.2221508,114.140385 96.9262277,115.315152 C95.6303046,116.477651 95.6303046,118.376295 96.9262277,119.544928 L106.97472,128.633272 C108.243504,129.777366 107.978891,131.9582 106.391216,133.390619 C104.80354,134.829172 102.38471,135.06842 101.122712,133.924325 L91.0708264,124.842117 C89.7749033,123.670417 87.6783576,123.670417 86.3892194,124.842117 C85.0932963,126.004615 85.0932963,127.90326 86.3892194,129.07496 L96.4377121,138.160236 C97.7064955,139.307397 97.4317055,141.488232 95.8474226,142.923718 C94.2631396,144.356136 91.8510942,144.601519 90.5789184,143.451289 L80.5304257,134.369081 C79.2412875,133.200448 77.1413493,133.200448 75.8488187,134.369081 C74.5596805,135.537713 74.5596805,137.436358 75.8488187,138.598856 L85.8973114,147.6872 C87.1694872,148.837429 86.8980897,151.018263 85.3138068,152.453749 C83.7193464,153.889235 81.307301,154.13155 80.0419102,152.984388 L67.8086675,141.914583 C69.5557889,139.540511 69.0808433,136.095958 66.4889971,133.743356 C63.5850437,131.120834 59.1171623,130.878519 56.532101,133.221919 C59.1171623,130.881586 58.8627271,126.848116 55.9519888,124.219459 C53.0412505,121.59387 48.5835465,121.351555 45.9984852,123.68882 C48.5835465,121.351555 48.3223264,117.321152 45.4081956,114.695562 C42.5042423,112.063838 38.0465382,111.824591 35.454692,114.161856 C38.0465382,111.824591 37.7785332,107.794188 34.8711874,105.159396 C32.1504273,102.69944 28.0964271,102.365107 25.4604788,104.239213 L5.65185311,86.3293796 C4.35932248,85.1576796 2.25938426,85.1576796 0.966853624,86.3293796 C-0.322284541,87.4949451 -0.322284541,89.3935899 0.966853624,90.5652899 L20.7245922,108.426047 L14.8657985,113.723235 C12.2807373,116.057434 12.5419574,120.087836 15.4560881,122.722628 C18.3600414,125.348217 22.8177455,125.590532 25.4061993,123.250199 C22.8177455,125.590532 23.0823581,129.617868 25.9930964,132.249592 C28.8970497,134.872114 33.3581463,135.120564 35.9466,132.780231 C33.3581463,135.120564 33.6193664,139.147899 36.5301046,141.776556 C39.4408429,144.40828 43.898547,144.647528 46.4836083,142.310262 C43.898547,144.64446 44.1597671,148.671796 47.0705054,151.306587 C49.9778512,153.932177 54.4321628,154.174492 57.024009,151.834159 L63.2118722,146.242512 L75.3603031,157.223366 C79.237895,160.729264 85.7955373,160.483882 89.9954138,156.692727 C92.0410725,154.843158 93.1334475,152.481355 93.2861086,150.144089 C95.8711698,150.006062 98.4867633,149.015331 100.52903,147.162695 C102.578081,145.313127 103.677241,142.951323 103.833294,140.614058 C106.414963,140.47603 109.020379,139.488367 111.076215,137.635731 C113.121874,135.783096 114.217641,133.424359 114.36691,131.084026 C116.955364,130.949066 119.567565,129.961403 121.616616,128.102633 C125.809707,124.311478 126.067535,118.373228 122.200121,114.873464 L117.077493,110.238808 L138.1108,91.2247546 C139.40333,90.0591891 139.40333,88.1605443 138.1108,86.9919116 L107.673569,59.456961 Z" id="Shape"></path>
                <text id="EZETHER" font-family="Montserrat-Black, Montserrat" font-size="144" font-weight="700">
                    <tspan x="176" y="145">EZETHER</tspan>
                </text>
            </g>
        </g>
    </g>
</svg>