<?xml version="1.0" encoding="UTF-8"?>
<svg width="244px" height="30px" viewBox="0 0 244 30" version="1.1" xmlns="http://www.w3.org/2000/svg" xmlns:xlink="http://www.w3.org/1999/xlink">
    <!-- Generator: Sketch 42 (36781) - http://www.bohemiancoding.com/sketch -->
    <title>Logologo</title>
    <desc>Created with Sketch.</desc>
    <defs></defs>
    <g id="Mockups" stroke="none" strokeWidth="1" fill="none" fillRule="evenodd">
        <g id="Dashboard" transform="translate(-46.000000, -23.000000)" fill="#FFFFFF">
            <g id="Logo" transform="translate(46.000000, 13.000000)">
                <g id="logo" transform="translate(44.000000, 0.000000)">
                    <text id="ther" font-family="AvenirNext-Bold, Avenir Next" font-size="14" font-weight="bold">
                        <tspan x="142" y="23">ther</tspan>
                    </text>
                    <text id="AutomtE" font-family="AvenirNext-Regular, Avenir Next" font-size="36" font-weight="normal">
                        <tspan x="0" y="36">AutomtE</tspan>
                    </text>
                    <text id="xchange" font-family="AvenirNext-Bold, Avenir Next" font-size="14" font-weight="bold">
                        <tspan x="142" y="36">xchange</tspan>
                    </text>
                </g>
                <g id="Group" transform="translate(0.000000, 10.000000)">
                    <path d="M26.9183922,4.86424025 C26.8242512,4.77835648 26.7072111,4.71624411 26.5808416,4.6802036 L18.9689896,2.51930656 C15.9250969,1.65510111 13.9447432,3.16266803 13.4112775,3.64653106 C13.1000185,3.92795378 12.8616975,4.22471288 12.7395687,4.48313101 L9.34879605,11.6943005 C9.15457721,12.1068494 9.22073035,12.6566589 9.52520443,13.2049347 C9.96113668,13.9878573 10.7464932,14.5522364 11.685359,14.7554435 C12.7361762,14.9831889 13.8260068,14.6741607 14.6792127,13.9035072 C14.9022676,13.7018337 15.0922458,13.4794561 15.2041973,13.2908185 L16.3440668,11.3791378 C16.5315007,11.0624414 16.8037464,10.7342427 17.09041,10.4750577 C18.0682891,9.59014813 18.5330574,9.99502877 18.7306687,10.1667963 C20.4362324,11.6551927 29.3779322,19.7742764 29.3779322,19.7742764 C29.6959761,20.0618337 29.629823,20.6070423 29.232056,20.9659137 C28.8351371,21.3240184 28.2312777,21.385364 27.9140819,21.0993403 L25.4019587,18.8287881 C25.0779779,18.5350963 24.5555377,18.5350963 24.2315569,18.8287881 C23.9075761,19.1194127 23.9075761,19.5940739 24.2315569,19.886232 L26.7436801,22.1583179 C27.0608759,22.4443415 26.9947228,22.9895501 26.5978039,23.3476548 C26.2008851,23.7072931 25.5961775,23.767105 25.2806779,23.4810813 L22.7677066,21.2105291 C22.4437258,20.9176041 21.9195894,20.9176041 21.5973048,21.2105291 C21.2733241,21.5011537 21.2733241,21.9758149 21.5973048,22.2687399 L24.109428,24.5400589 C24.4266239,24.8268494 24.3579264,25.3720579 23.9618556,25.7309294 C23.5657849,26.0890341 22.9627736,26.1503796 22.6447296,25.8628224 L20.1326064,23.5922701 C19.8103219,23.300112 19.2853373,23.300112 18.9622047,23.5922701 C18.6399201,23.8844283 18.6399201,24.3590895 18.9622047,24.6497141 L21.4743279,26.9217999 C21.7923718,27.2093572 21.7245224,27.7545658 21.3284517,28.1134373 C20.9298366,28.4723087 20.3268253,28.5328875 20.0104775,28.246097 L16.9521669,25.4786458 C17.3889472,24.8851276 17.2702108,24.0239895 16.6222493,23.435839 C15.8962609,22.7802084 14.7792906,22.7196297 14.1330252,23.3054797 C14.7792906,22.7203965 14.7156818,21.712029 13.9879972,21.0548648 C13.2603126,20.3984674 12.1458866,20.3378887 11.4996213,20.922205 C12.1458866,20.3378887 12.0805816,19.330288 11.3520489,18.6738906 C10.6260606,18.0159596 9.51163455,17.9561477 8.863673,18.540464 C9.51163455,17.9561477 9.44463329,16.948547 8.71779684,16.2898491 C8.03760683,15.67486 7.02410676,15.5912767 6.36511969,16.0598033 L1.41296328,11.5823449 C1.08983062,11.2894199 0.564846064,11.2894199 0.241713406,11.5823449 C-0.0805711353,11.8737363 -0.0805711353,12.3483975 0.241713406,12.6413225 L5.18114806,17.1065118 L3.71644963,18.4308089 C3.07018431,19.0143584 3.13548934,20.0219591 3.86402203,20.6806569 C4.59001036,21.3370543 5.70443638,21.3976331 6.35154981,20.8125499 C5.70443638,21.3976331 5.77058952,22.4044669 6.49827409,23.062398 C7.22426243,23.7180285 8.33953656,23.7801409 8.98665,23.1950577 C8.33953656,23.7801409 8.40484159,24.7869748 9.13252616,25.444139 C9.86021073,26.10207 10.9746367,26.1618819 11.6209021,25.5775655 C10.9746367,26.1611151 11.0399418,27.167949 11.7676263,27.8266468 C12.4944628,28.4830442 13.6080407,28.5436229 14.2560022,27.9585397 L15.802968,26.560628 L18.8400758,29.3058414 C19.8094738,30.182316 21.4488843,30.1209704 22.4988534,29.1731817 C23.0102681,28.7107896 23.2833619,28.1203386 23.3215271,27.5360223 C23.9677925,27.5015154 24.6216908,27.2538327 25.1322574,26.7906738 C25.6445202,26.3282817 25.9193102,25.7378308 25.9583236,25.1535144 C26.6037408,25.1190076 27.2550948,24.8720917 27.7690538,24.4089328 C28.2804685,23.9457739 28.5544104,23.3560898 28.5917275,22.7710066 C29.2388409,22.7372665 29.8918912,22.4903507 30.404154,22.0256581 C31.4524269,21.0778694 31.5168838,19.593307 30.5500302,18.7183661 L29.2693732,17.559702 L34.5276999,12.8061886 C34.8508325,12.5147973 34.8508325,12.0401361 34.5276999,11.7479779 L26.9183922,4.86424025 Z" id="Shape"></path>
                    <path d="M39.4454577,6.49745238 L32.7444836,0.438812395 C32.0982182,-0.146270798 31.0490972,-0.146270798 30.4019838,0.438812395 L28.0594841,2.5552339 C27.4132188,3.13955028 27.4132188,4.08810586 28.0594841,4.67242223 L34.7613063,10.7325959 C35.4084197,11.3169122 36.4575407,11.3169122 37.103806,10.7325959 L39.4454577,8.61540752 C40.0908749,8.03032433 40.0908749,7.08176875 39.4454577,6.49745238 Z M35.9283156,9.58313359 C35.17858,9.58313359 34.5696318,9.03332409 34.5696318,8.35468893 C34.5696318,7.67605377 35.17858,7.12547745 35.9283156,7.12547745 C36.6788993,7.12547745 37.2878475,7.67528695 37.2878475,8.35468893 C37.2869994,9.03255727 36.6788993,9.58313359 35.9283156,9.58313359 Z" id="Shape"></path>
                </g>
            </g>
        </g>
    </g>
</svg>